<svg xmlns="http://www.w3.org/2000/svg" width="256" height="256" viewBox="0 0 256 256" fill="none">
  <defs>
    <linearGradient id="bg" x1="0" y1="0" x2="256" y2="256" gradientUnits="userSpaceOnUse">
      <stop stop-color="#1A0B2E"/>
      <stop offset="1" stop-color="#0F061A"/>
    </linearGradient>
    <linearGradient id="accent" x1="60" y1="60" x2="196" y2="196" gradientUnits="userSpaceOnUse">
      <stop stop-color="#FFFFFF"/>
      <stop offset="1" stop-color="#B0B0B0"/>
    </linearGradient>
  </defs>
  <rect width="256" height="256" rx="64" fill="url(#bg)"/>
  <path d="M70 180V76H92L144 140V76H166V180H144L92 116V180H70Z" fill="url(#accent)" opacity="0.9"/>
  <circle cx="128" cy="128" r="80" stroke="url(#accent)" stroke-width="12" opacity="0.3"/>
  <path d="M128 58C89.3401 58 58 89.3401 58 128C58 166.66 89.3401 198 128 198C166.66 198 198 166.66 198 128C198 89.3401 166.66 58 128 58ZM128 78C155.614 78 178 100.386 178 128C178 155.614 155.614 178 128 178C100.386 178 78 155.614 78 128C78 100.386 100.386 78 128 78Z" fill="url(#accent)" opacity="0.8"/>
</svg>
